<svg width="38" height="38" viewBox="0 0 38 38" fill="none" xmlns="http://www.w3.org/2000/svg">
<path d="M26.294 13.6505C26.294 8.3741 24.2359 3.58784 20.8954 0C30.5093 1.01844 38.0001 9.10882 38.0001 18.9439C38.0001 29.4682 29.4227 38 18.8447 38C14.2655 38 10.0652 36.3961 6.76941 33.7304C14.3922 33.471 20.9284 29.0182 24.1688 22.6312C24.8308 21.327 21.1944 21.3598 21.0167 18.9449C20.8528 16.6889 26.294 16.0431 26.294 13.6505Z" fill="#76EA81"/>
<path d="M20.7582 27.4376C21.5829 26.5705 22.3332 25.6325 22.9972 24.631C28.796 25.929 31.1244 24.342 30.7828 25.4854C30.421 26.6997 25.6779 28.6699 20.7582 27.4376ZM27.3593 15.2385C27.3593 16.7005 28.5512 17.8852 30.0198 17.8852C31.4884 17.8852 32.6802 16.7005 32.6802 15.2385C32.6802 13.7765 31.4884 12.5918 30.0198 12.5918C28.5512 12.5918 27.3593 13.7765 27.3593 15.2385Z" fill="#2F343A"/>
</svg>
