<svg width="54" height="39" viewBox="0 0 54 39" fill="none" xmlns="http://www.w3.org/2000/svg">
<path d="M27 39C37.4934 39 46 30.4934 46 20C46 9.50659 37.4934 1 27 1C16.5066 1 8 9.50659 8 20C8 30.4934 16.5066 39 27 39Z" fill="#9970DB"/>
<path d="M24 28C21.1692 28.2178 17 24.7443 17 26.0365C17 27.3307 21.2222 30.713 26.5 30.713C31.7778 30.713 40.0336 26.9471 36 26.0365C33.0467 25.3697 31.4973 28.4278 28.5 28V28C27.1677 27.8098 25.8168 27.7443 24.4858 27.9431C24.3166 27.9684 24.1523 27.9883 24 28ZM36 17.1337C36 18.8645 34.5813 20.2674 32.8333 20.2674C31.0853 20.2674 29.6667 18.8645 29.6667 17.1337C29.6667 15.4028 31.0853 14 32.8333 14C34.5813 14 36 15.4028 36 17.1337ZM23.3333 17.1337C23.3333 18.8645 21.9147 20.2674 20.1667 20.2674C18.4187 20.2674 17 18.8645 17 17.1337C17 15.4028 18.4187 14 20.1667 14C21.9147 14 23.3333 15.4028 23.3333 17.1337Z" fill="#292F33"/>
<path d="M7.5639 2.79391C7.6918 2.16809 8.18346 1.68054 8.81034 1.5579V1.5579C9.27503 1.46699 9.75602 1.58897 10.1212 1.89035L15.3675 6.21968C16.3999 7.07163 16.471 8.62872 15.5205 9.57122V9.57122C14.5701 10.5137 13.0137 10.4295 12.1704 9.39001L7.88532 4.10754C7.58702 3.73982 7.46909 3.25783 7.5639 2.79391V2.79391Z" fill="#9970DB"/>
<path d="M1.1057 14.9947C0.689346 14.47 0.650523 13.7394 1.00893 13.1736V13.1736C1.25408 12.7866 1.65563 12.5256 2.10882 12.4586L9.51133 11.3653C10.8382 11.1693 12.046 12.1571 12.1172 13.4965V13.4965C12.1883 14.8358 11.092 15.9461 9.75186 15.8918L2.27516 15.589C1.81743 15.5705 1.39047 15.3535 1.1057 14.9947V14.9947Z" fill="#9970DB"/>
<path d="M52.4218 14.9947C52.8382 14.47 52.877 13.7394 52.5186 13.1736V13.1736C52.2735 12.7866 51.8719 12.5256 51.4187 12.4586L44.0162 11.3653C42.6894 11.1693 41.4815 12.1571 41.4104 13.4965V13.4965C41.3392 14.8358 42.4355 15.9461 43.7757 15.8918L51.2524 15.589C51.7101 15.5705 52.1371 15.3535 52.4218 14.9947V14.9947Z" fill="#9970DB"/>
<path d="M46.7318 2.79391C46.6039 2.16809 46.1122 1.68054 45.4853 1.5579V1.5579C45.0206 1.46699 44.5396 1.58897 44.1744 1.89035L38.9282 6.21968C37.8958 7.07163 37.8247 8.62872 38.7751 9.57122V9.57122C39.7256 10.5137 41.282 10.4295 42.1252 9.39001L46.4103 4.10754C46.7086 3.73982 46.8266 3.25783 46.7318 2.79391V2.79391Z" fill="#9970DB"/>
<path d="M28.5767 22.9384C29.2115 22.6726 30.3485 21.8237 30.4813 22.1411C30.6142 22.4586 30.5365 22.8601 30.2191 22.993C29.9016 23.1258 29.5842 23.2587 28.8424 23.5732C28.1006 23.8878 27.9418 23.2041 28.5767 22.9384Z" fill="#292F33"/>
<path d="M25.1704 22.9384C24.5355 22.6726 23.3986 21.8237 23.2657 22.1411C23.1329 22.4586 23.2105 22.8601 23.528 22.993C23.8454 23.1258 24.1629 23.2587 24.9047 23.5732C25.6465 23.8878 25.8053 23.2041 25.1704 22.9384Z" fill="#292F33"/>
<rect x="19" y="15" width="2" height="2" rx="1" fill="white"/>
<rect x="19" y="15" width="2" height="2" rx="1" fill="white"/>
<rect x="19" y="15" width="2" height="2" rx="1" fill="white"/>
<rect x="33" y="15" width="2" height="2" rx="1" fill="white"/>
<rect x="33" y="15" width="2" height="2" rx="1" fill="white"/>
<rect x="33" y="15" width="2" height="2" rx="1" fill="white"/>
<rect x="31" y="18" width="1" height="1" rx="0.5" fill="white"/>
<rect x="31" y="18" width="1" height="1" rx="0.5" fill="white"/>
<rect x="31" y="18" width="1" height="1" rx="0.5" fill="white"/>
<rect x="21" y="18" width="1" height="1" rx="0.5" fill="white"/>
<rect x="21" y="18" width="1" height="1" rx="0.5" fill="white"/>
<rect x="21" y="18" width="1" height="1" rx="0.5" fill="white"/>
</svg>
